<?xml version="1.0" encoding="UTF-8" standalone="no"?>
<!-- Created with Inkscape (http://www.inkscape.org/) -->

<svg
   xmlns:dc="http://purl.org/dc/elements/1.1/"
   xmlns:cc="http://creativecommons.org/ns#"
   xmlns:rdf="http://www.w3.org/1999/02/22-rdf-syntax-ns#"
   xmlns:svg="http://www.w3.org/2000/svg"
   xmlns="http://www.w3.org/2000/svg"
   xmlns:xlink="http://www.w3.org/1999/xlink"
   xmlns:sodipodi="http://sodipodi.sourceforge.net/DTD/sodipodi-0.dtd"
   xmlns:inkscape="http://www.inkscape.org/namespaces/inkscape"
   width="180"
   height="180"
   id="svg2"
   version="1.1"
   inkscape:version="0.48.2 r9819"
   sodipodi:docname="logo.svg"
   inkscape:export-filename="/Users/Andi/Documents/Coding/QuantifiedSelf/logo.png"
   inkscape:export-xdpi="800"
   inkscape:export-ydpi="800">
  <defs
     id="defs4">
    <pattern
       inkscape:collect="always"
       xlink:href="#pattern5956"
       id="pattern5961"
       patternTransform="matrix(0.8,0,0,-0.8,22.409079,37.830582)" />
    <pattern
       inkscape:collect="always"
       xlink:href="#pattern5921"
       id="pattern5956"
       patternTransform="matrix(0.8,0,0,-0.8,0,28.906)" />
    <clipPath
       id="clipPath3060"
       clipPathUnits="userSpaceOnUse">
      <path
         id="path3062"
         d="M 0,0 612,0 612,792 0,792 0,0 z"
         inkscape:connector-curvature="0" />
    </clipPath>
    <clipPath
       id="clipPath3050"
       clipPathUnits="userSpaceOnUse">
      <path
         id="path3052"
         d="M 0,0 6,0 6,9 0,9 0,0 z"
         inkscape:connector-curvature="0" />
    </clipPath>
    <clipPath
       id="clipPath3036"
       clipPathUnits="userSpaceOnUse">
      <path
         id="path3038"
         d="M 0,0 927,0 927,1932 0,1932 0,0 z"
         inkscape:connector-curvature="0" />
    </clipPath>
    <clipPath
       id="clipPath3026"
       clipPathUnits="userSpaceOnUse">
      <path
         id="path3028"
         d="M 0,0 16,0 16,22 0,22 0,0 z"
         inkscape:connector-curvature="0" />
    </clipPath>
    <pattern
       patternUnits="userSpaceOnUse"
       width="90"
       height="27.08875"
       patternTransform="matrix(0.8,0,0,-0.8,0,28.906)"
       id="pattern5921">
      <g
         id="g5889"
         transform="matrix(1.25,0,0,-1.25,0,36.1325)">
        <path
           id="path3539"
           style="fill:#88aaaa;fill-opacity:1;fill-rule:nonzero;stroke:none"
           d="m 21.602,21.707 7.199,0 0,-7.199 -7.199,0 0,7.199 z"
           inkscape:connector-curvature="0" />
        <path
           id="path3541"
           style="fill:#447799;fill-opacity:1;fill-rule:nonzero;stroke:none"
           d="m 21.602,28.906 7.199,0 0,-7.199 -7.199,0 0,7.199 z"
           inkscape:connector-curvature="0" />
        <path
           id="path3543"
           style="fill:#38795f;fill-opacity:1;fill-rule:nonzero;stroke:none"
           d="m 21.602,14.508 7.199,0 0,-7.203 -7.199,0 0,7.203 z"
           inkscape:connector-curvature="0" />
        <path
           id="path3545"
           style="fill:#6699aa;fill-opacity:1;fill-rule:nonzero;stroke:none"
           d="m 0,21.707 7.199,0 0,-7.199 -7.199,0 0,7.199 z"
           inkscape:connector-curvature="0" />
        <path
           id="path3547"
           style="fill:#38795f;fill-opacity:1;fill-rule:nonzero;stroke:none"
           d="m 0,28.906 7.199,0 0,-7.199 -7.199,0 0,7.199 z"
           inkscape:connector-curvature="0" />
        <path
           id="path3549"
           style="fill:#88aaaa;fill-opacity:1;fill-rule:nonzero;stroke:none"
           d="m 0,14.508 7.199,0 0,-7.203 -7.199,0 0,7.203 z"
           inkscape:connector-curvature="0" />
        <path
           id="path3551"
           style="fill:#6699aa;fill-opacity:1;fill-rule:nonzero;stroke:none"
           d="m 14.398,28.906 7.203,0 0,-7.199 -7.203,0 0,7.199 z"
           inkscape:connector-curvature="0" />
        <path
           id="path3553"
           style="fill:#447799;fill-opacity:1;fill-rule:nonzero;stroke:none"
           d="m 14.398,14.508 7.203,0 0,-7.203 -7.203,0 0,7.203 z"
           inkscape:connector-curvature="0" />
        <path
           id="path3555"
           style="fill:#bbeeff;fill-opacity:1;fill-rule:nonzero;stroke:none"
           d="m 14.398,21.707 7.203,0 0,-7.199 -7.203,0 0,7.199 z"
           inkscape:connector-curvature="0" />
        <path
           id="path3557"
           style="fill:#6699aa;fill-opacity:1;fill-rule:nonzero;stroke:none"
           d="m 28.801,28.906 7.199,0 0,-7.199 -7.199,0 0,7.199 z"
           inkscape:connector-curvature="0" />
        <path
           id="path3559"
           style="fill:#88aaaa;fill-opacity:1;fill-rule:nonzero;stroke:none"
           d="m 28.801,14.508 7.199,0 0,-7.203 -7.199,0 0,7.203 z"
           inkscape:connector-curvature="0" />
        <path
           id="path3561"
           style="fill:#bbeeff;fill-opacity:1;fill-rule:nonzero;stroke:none"
           d="m 28.801,21.707 7.199,0 0,-7.199 -7.199,0 0,7.199 z"
           inkscape:connector-curvature="0" />
        <path
           id="path3565"
           style="fill:#bbeeff;fill-opacity:1;fill-rule:nonzero;stroke:none"
           d="m 7.199,28.906 7.199,0 0,-7.199 -7.199,0 0,7.199 z"
           inkscape:connector-curvature="0" />
        <path
           id="path3567"
           style="fill:#447799;fill-opacity:1;fill-rule:nonzero;stroke:none"
           d="m 7.199,21.707 7.199,0 0,-7.199 -7.199,0 0,7.199 z"
           inkscape:connector-curvature="0" />
        <path
           id="path3569"
           style="fill:#bbeeff;fill-opacity:1;fill-rule:nonzero;stroke:none"
           d="m 7.199,14.508 7.199,0 0,-7.203 -7.199,0 0,7.203 z"
           inkscape:connector-curvature="0" />
        <path
           id="path3573"
           style="fill:#88aaaa;fill-opacity:1;fill-rule:nonzero;stroke:none"
           d="m 43.199,21.707 7.199,0 0,-7.199 -7.199,0 0,7.199 z"
           inkscape:connector-curvature="0" />
        <path
           id="path3575"
           style="fill:#447799;fill-opacity:1;fill-rule:nonzero;stroke:none"
           d="m 43.199,28.906 7.199,0 0,-7.199 -7.199,0 0,7.199 z"
           inkscape:connector-curvature="0" />
        <path
           id="path3577"
           style="fill:#38795f;fill-opacity:1;fill-rule:nonzero;stroke:none"
           d="m 43.199,14.508 7.199,0 0,-7.203 -7.199,0 0,7.203 z"
           inkscape:connector-curvature="0" />
        <path
           id="path3579"
           style="fill:#6699aa;fill-opacity:1;fill-rule:nonzero;stroke:none"
           d="m 64.801,21.707 7.199,0 0,-7.199 -7.199,0 0,7.199 z"
           inkscape:connector-curvature="0" />
        <path
           id="path3581"
           style="fill:#38795f;fill-opacity:1;fill-rule:nonzero;stroke:none"
           d="m 64.801,28.906 7.199,0 0,-7.199 -7.199,0 0,7.199 z"
           inkscape:connector-curvature="0" />
        <path
           id="path3583"
           style="fill:#88aaaa;fill-opacity:1;fill-rule:nonzero;stroke:none"
           d="m 64.801,14.508 7.199,0 0,-7.203 -7.199,0 0,7.203 z"
           inkscape:connector-curvature="0" />
        <path
           id="path3585"
           style="fill:#6699aa;fill-opacity:1;fill-rule:nonzero;stroke:none"
           d="m 50.398,28.906 7.203,0 0,-7.199 -7.203,0 0,7.199 z"
           inkscape:connector-curvature="0" />
        <path
           id="path3587"
           style="fill:#447799;fill-opacity:1;fill-rule:nonzero;stroke:none"
           d="m 50.398,14.434 7.203,0 0,-7.199 -7.203,0 0,7.199 z"
           inkscape:connector-curvature="0" />
        <path
           id="path3589"
           style="fill:#bbeeff;fill-opacity:1;fill-rule:nonzero;stroke:none"
           d="m 50.398,21.672 7.203,0 0,-7.199 -7.203,0 0,7.199 z"
           inkscape:connector-curvature="0" />
        <path
           id="path3591"
           style="fill:#bbeeff;fill-opacity:1;fill-rule:nonzero;stroke:none"
           d="m 36,28.906 7.199,0 0,-7.199 -7.199,0 0,7.199 z"
           inkscape:connector-curvature="0" />
        <path
           id="path3593"
           style="fill:#88aaaa;fill-opacity:1;fill-rule:nonzero;stroke:none"
           d="m 36,14.508 7.199,0 0,-7.203 -7.199,0 0,7.203 z"
           inkscape:connector-curvature="0" />
        <path
           id="path3595"
           style="fill:#38795f;fill-opacity:1;fill-rule:nonzero;stroke:none"
           d="m 36,21.707 7.199,0 0,-7.199 -7.199,0 0,7.199 z"
           inkscape:connector-curvature="0" />
        <path
           id="path3597"
           style="fill:#bbeeff;fill-opacity:1;fill-rule:nonzero;stroke:none"
           d="m 57.602,28.906 7.199,0 0,-7.199 -7.199,0 0,7.199 z"
           inkscape:connector-curvature="0" />
        <path
           id="path3599"
           style="fill:#447799;fill-opacity:1;fill-rule:nonzero;stroke:none"
           d="m 57.602,21.707 7.199,0 0,-7.199 -7.199,0 0,7.199 z"
           inkscape:connector-curvature="0" />
        <path
           id="path3601"
           style="fill:#bbeeff;fill-opacity:1;fill-rule:nonzero;stroke:none"
           d="m 57.602,14.508 7.199,0 0,-7.203 -7.199,0 0,7.203 z"
           inkscape:connector-curvature="0" />
      </g>
    </pattern>
  </defs>
  <sodipodi:namedview
     id="base"
     pagecolor="#ffffff"
     bordercolor="#666666"
     borderopacity="1.0"
     inkscape:pageopacity="0.0"
     inkscape:pageshadow="2"
     inkscape:zoom="0.84010362"
     inkscape:cx="-9.7124153"
     inkscape:cy="74.057578"
     inkscape:document-units="px"
     inkscape:current-layer="layer1"
     showgrid="false"
     showguides="true"
     inkscape:guide-bbox="true"
     fit-margin-top="0"
     fit-margin-left="0"
     fit-margin-right="0"
     fit-margin-bottom="0"
     inkscape:window-width="1741"
     inkscape:window-height="1037"
     inkscape:window-x="1440"
     inkscape:window-y="22"
     inkscape:window-maximized="0" />
  <metadata
     id="metadata7">
    <rdf:RDF>
      <cc:Work
         rdf:about="">
        <dc:format>image/svg+xml</dc:format>
        <dc:type
           rdf:resource="http://purl.org/dc/dcmitype/StillImage" />
        <dc:title></dc:title>
      </cc:Work>
    </rdf:RDF>
  </metadata>
  <g
     inkscape:label="Ebene 1"
     inkscape:groupmode="layer"
     id="layer1"
     transform="translate(-218.59375,-355)">
    <rect
       style="opacity:0;fill:#ffffff;fill-opacity:1;stroke:none"
       id="rect6001"
       width="180"
       height="180"
       x="218.59375"
       y="355"
       inkscape:export-filename="/Users/Andi/Documents/Coding/QuantifiedSelf/logo.png"
       inkscape:export-xdpi="800"
       inkscape:export-ydpi="800" />
    <g
       style="font-size:30px;font-style:normal;font-variant:normal;font-weight:bold;font-stretch:normal;text-align:start;line-height:100%;letter-spacing:0px;word-spacing:0px;writing-mode:lr-tb;text-anchor:start;fill:#000000;fill-opacity:1;stroke:none;font-family:Utopia;-inkscape-font-specification:Utopia Bold"
       id="text2985" />
    <g
       transform="matrix(1.25,0,0,-1.25,0,27.5)"
       inkscape:label="latex-image-1"
       id="g3018">
      <g
         id="g3020">
        <g
           id="g3022">
          <g
             clip-path="url(#clipPath3026)"
             id="g3024">
            <g
               transform="translate(-16,-1905)"
               id="g3030">
              <g
                 id="g3032">
                <g
                   clip-path="url(#clipPath3036)"
                   id="g3034">
                  <g
                     transform="translate(14.944,1905)"
                     id="g3040">
                    <g
                       transform="scale(3,3)"
                       id="g3042">
                      <g
                         id="g3044">
                        <g
                           id="g3046">
                          <g
                             clip-path="url(#clipPath3050)"
                             id="g3048">
                            <g
                               transform="translate(-302.999,-634.998)"
                               id="g3054">
                              <g
                                 id="g3056">
                                <g
                                   clip-path="url(#clipPath3060)"
                                   id="g3058">
                                <text
                                   id="text3064"
                                   transform="matrix(1,0,0,-1,302.933,635.318)">
                                <tspan
                                   id="tspan3066"
                                   y="0"
                                   x="0"
                                   style="font-size:9.96259975px;font-variant:normal;font-weight:normal;writing-mode:lr-tb;fill:#2a2a2a;fill-opacity:1;fill-rule:nonzero;stroke:none;font-family:MS Gothic;-inkscape-font-specification:MSBM10"></tspan>
                                </text>
                                </g>
                              </g>
                            </g>
                          </g>
                        </g>
                      </g>
                    </g>
                  </g>
                </g>
              </g>
            </g>
          </g>
        </g>
      </g>
    </g>
    <path
       style="font-size:medium;font-style:normal;font-variant:normal;font-weight:normal;font-stretch:normal;text-indent:0;text-align:start;text-decoration:none;line-height:normal;letter-spacing:normal;word-spacing:normal;text-transform:none;direction:ltr;block-progression:tb;writing-mode:lr-tb;text-anchor:start;baseline-shift:baseline;color:#000000;fill:url(#pattern5961);fill-opacity:1;stroke:none;stroke-width:1.5;marker:none;visibility:visible;display:inline;overflow:visible;enable-background:accumulate;font-family:Sans;-inkscape-font-specification:Sans"
       d="m 287.5,360.35937 -46.3125,6.1875 0,8.1875 7.96875,1.375 c 3.17216,0.59479 4.99102,2.21869 5.40625,8.625 l -13.4375,0 0,11.40625 13.53125,0 0,113.65625 c 0,9.5811 -1.84086,10.50315 -14.84375,11.1875 l 0,8.65625 61.375,0 0,-8.65625 -4.8125,-0.46875 c -4.79053,-0.45623 -7.28125,-1.59699 -7.28125,-9.125 l 0,-54.0625 c 0,-5.01866 0.6844,-10.27506 2.28125,-13.46875 2.96557,-5.93115 9.10642,-11.15625 18.6875,-11.15625 11.63416,0 17.57501,7.06275 18.03125,20.75 l 0,57.9375 c 0,7.52801 -2.52197,8.66877 -7.3125,9.125 L 316,520.98437 l 0,8.65625 61.375,0 0,-8.65625 c -13.00289,-0.68435 -14.84375,-1.6064 -14.84375,-11.1875 l 0,-59.53125 c -0.22812,-21.44335 -10.95356,-35.15625 -34.90625,-35.15625 -13.68725,0 -24.38776,6.85328 -38.53125,15.75 l 0,-34.71875 74.40625,0 0,-11.40625 -74.40625,0 0,-23 -1.59375,-1.375 z"
       id="path3093"
       inkscape:connector-curvature="0"
       inkscape:export-filename="/Users/Andi/Documents/Coding/QuantifiedSelf/logo.png"
       inkscape:export-xdpi="800.14539"
       inkscape:export-ydpi="800.14539" />
    <g
       transform="matrix(1.25,0,0,-1.25,134.77524,443.76325)"
       inkscape:label="properPATTERN"
       id="g3535">
      <g
         id="g3537">
        <rect
           style="fill:url(#pattern5921);stroke:none"
           width="72"
           height="0"
           x="0"
           y="28.906"
           id="rect5954" />
      </g>
    </g>
  </g>
</svg>
